<svg width="92" height="69" viewBox="0 0 92 69" fill="none" xmlns="http://www.w3.org/2000/svg">
<path d="M41.1408 1.39221C34.6099 -0.12941 25.6925 1.54643 17.2674 6.46935C4.08635 14.171 -2.89743 26.9028 1.66853 34.9069C4.5861 40.0215 11.5136 41.9673 19.574 40.6966C15.8876 39.838 12.9612 37.9605 11.3136 35.0725C6.74762 27.0687 13.7317 14.3368 26.9127 6.63495C31.6712 3.85435 36.5867 2.1102 41.1408 1.39221Z" fill="#F0282D"/>
<path d="M41.2546 32.9709C43.218 39.4555 49.1104 46.4335 57.5359 51.3564C70.7169 59.058 85.1038 58.8132 89.6698 50.8094C92.5874 45.6949 90.7887 38.6502 85.6711 32.2209C86.7795 35.8816 86.6363 39.3848 84.9884 42.2727C80.4224 50.2768 66.0357 50.5216 52.8545 42.8197C48.0962 40.0393 44.1462 36.6031 41.2546 32.9709Z" fill="#00A651"/>
<path d="M32.3174 17.2609C27.7498 22.2239 24.7251 30.8777 24.7251 40.7232C24.7251 56.127 32.1283 68.6139 41.2602 68.6139C47.0953 68.6139 52.2245 63.5148 55.1673 55.8153C52.589 58.6171 49.5193 60.243 46.2244 60.243C37.0925 60.243 29.6893 47.7559 29.6893 32.3524C29.6893 26.7917 30.6545 21.6116 32.3174 17.2609Z" fill="#0078D0"/>
</svg>
